<svg version="1.1" id="Layer_1" xmlns="http://www.w3.org/2000/svg" xmlns:xlink="http://www.w3.org/1999/xlink" x="0px" y="0px"
	 viewBox="4 98 292 94" preserveAspectRatio="xMidYMid meet" xml:space="preserve">

<path fill="#74A9D7" opacity="1.000000" stroke="none" 
	d="
M49.029594,153.915100 
	C48.959816,153.595963 48.792278,153.341064 48.268414,152.688385 
	C47.557533,150.846054 47.105221,149.465775 46.652908,148.085480 
	C45.269627,142.288956 39.244347,138.423492 33.085125,139.448257 
	C30.466259,139.883972 27.890608,140.624207 25.260973,140.940720 
	C20.408609,141.524750 17.477812,139.528061 16.230146,135.069641 
	C14.646317,129.409943 16.118092,125.016502 20.611986,123.181534 
	C23.197670,122.125740 26.051641,121.733170 28.776663,121.011177 
	C34.568436,119.476654 36.742664,116.041191 35.582005,110.300041 
	C34.091743,102.928528 35.570526,101.105370 43.190830,100.955849 
	C44.522827,100.929710 45.870739,100.853775 47.186592,101.009544 
	C54.239243,101.844460 56.380962,105.802963 52.828995,112.765488 
	C49.564289,113.939896 46.842480,114.654671 44.179188,115.544563 
	C38.369370,117.485817 36.159908,122.094460 37.799294,128.647247 
	C39.666340,136.110001 43.105473,138.771561 49.557274,137.711044 
	C52.007904,137.308228 54.433399,136.635590 56.897282,136.456467 
	C61.076340,136.152649 64.883965,137.108627 67.117706,141.111084 
	C69.294945,145.012268 70.256477,149.093628 66.205910,152.326752 
	C63.746632,154.289719 60.739586,155.566437 57.978615,157.151443 
	C57.228245,157.109451 56.477875,157.067474 55.111225,156.829926 
	C53.661697,156.444107 52.828445,156.253876 51.995197,156.063629 
	C51.543308,155.753220 51.091419,155.442810 50.263283,154.809479 
	C49.601219,154.296066 49.315407,154.105591 49.029594,153.915100 
z"/>
<path fill="#EFF1F3" opacity="1.000000" stroke="none" 
	d="
M75.868858,178.963165 
	C86.781029,177.644501 112.565712,180.163284 118.364410,183.422943 
	C117.208313,184.305466 116.372002,185.431396 115.347733,185.641663 
	C110.826225,186.569839 106.265579,187.774078 101.691994,187.900986 
	C81.786575,188.453278 61.868237,189.029846 41.961720,188.842026 
	C32.273460,188.750656 22.595810,187.044266 12.926271,185.954391 
	C11.367980,185.778748 9.877396,185.002396 7.008006,184.062210 
	C15.192551,179.395523 23.123661,179.755875 30.724028,179.080170 
	C38.465919,178.391891 46.263939,178.335007 54.758659,178.231049 
	C60.747406,184.817505 68.464973,185.007782 75.868858,178.963165 
z"/>
<path fill="#74A9D7" opacity="1.000000" stroke="none" 
	d="
M97.097748,125.949356 
	C105.127319,125.800751 108.208885,127.480743 110.153107,133.066803 
	C111.943016,138.209488 110.691711,140.511810 105.209038,142.163727 
	C97.566895,144.466248 95.151657,150.230713 98.958542,157.081726 
	C102.034195,162.616791 101.962883,166.730606 98.730064,170.262955 
	C95.048744,174.285339 89.604347,175.015747 83.302399,171.891754 
	C82.574974,171.330582 82.296257,171.150146 82.017548,170.969711 
	C82.017548,170.969711 82.002312,171.001678 81.873459,170.651184 
	C80.838425,167.005814 79.356125,163.743118 79.169701,160.408005 
	C78.928543,156.093628 79.859810,152.580597 86.004829,152.574921 
	C89.750854,152.571472 93.194267,149.841049 94.036980,145.079880 
	C95.403976,137.356659 92.033501,132.184937 85.941582,127.904274 
	C85.979042,127.402588 85.987999,127.201752 85.879532,126.718964 
	C85.538216,125.873032 85.314316,125.309044 85.090424,124.745056 
	C86.201576,125.017921 87.312729,125.290787 88.948425,126.049011 
	C91.314194,126.360779 93.155426,126.187187 94.996658,126.013596 
	C94.996658,126.013596 95.003586,125.994270 95.358429,125.993797 
	C96.174767,125.978668 96.636253,125.964012 97.097748,125.949356 
z"/>
<path fill="#043E60" opacity="1.000000" stroke="none" 
	d="
M56.981361,117.741264 
	C57.421398,118.121895 57.861435,118.502525 58.665062,119.268501 
	C59.374268,120.372955 59.719875,121.092056 60.065754,122.136230 
	C60.411716,122.962708 60.757416,123.464127 61.062714,123.965874 
	C61.022316,123.966202 61.066437,123.898514 61.069016,124.218224 
	C61.443527,124.998909 61.815453,125.459892 62.131889,125.926285 
	C62.076401,125.931702 62.097576,125.822220 62.171158,126.079941 
	C62.520279,126.552292 62.795818,126.766930 63.331131,127.094826 
	C64.066254,127.782272 64.541611,128.356461 65.150284,129.174606 
	C65.609238,129.578049 65.934868,129.737518 66.564697,129.917755 
	C67.577675,130.313538 68.286461,130.688583 69.205429,131.310059 
	C70.037750,131.589783 70.659874,131.623047 71.210991,131.682800 
	C71.139984,131.709290 71.183205,131.564011 71.351707,131.956406 
	C75.975868,132.577026 80.431534,132.805252 85.262314,133.006470 
	C90.420586,134.705582 91.493149,139.011185 90.497879,142.847610 
	C89.838631,145.388794 86.539055,147.472855 84.053741,149.246170 
	C81.733139,150.901962 78.927200,151.877548 75.975853,152.977356 
	C74.747177,150.198013 73.877548,147.593842 72.900864,144.861099 
	C72.793816,144.732529 72.875977,144.408173 72.908890,144.012039 
	C72.507339,142.776871 72.072884,141.937820 71.407715,140.901031 
	C70.741257,139.594193 70.305527,138.485107 69.803780,137.084518 
	C69.432449,136.554550 69.127136,136.316086 68.876968,136.072418 
	C68.932106,136.067200 68.912743,136.176270 68.819267,135.912628 
	C68.418823,135.453995 68.111855,135.258987 67.590729,135.020142 
	C67.077904,134.843231 66.920334,134.613419 66.791290,133.988281 
	C66.106628,133.467361 65.534546,133.245041 64.977753,133.008698 
	C64.993050,132.994675 64.987885,133.035629 64.813156,132.774475 
	C64.043388,132.379807 63.448353,132.246277 62.893566,132.091965 
	C62.933815,132.071167 62.947693,132.160706 62.773872,131.866806 
	C61.402000,131.725296 60.203957,131.877670 58.907021,132.140533 
	C58.808125,132.251007 58.525066,132.162598 58.159260,132.136230 
	C57.213623,132.463257 56.633793,132.816666 56.057247,133.123291 
	C56.060532,133.076523 56.147102,133.112579 55.733597,133.076294 
	C53.546604,133.639282 51.773117,134.238571 49.716927,134.880707 
	C48.959461,134.612213 48.484699,134.300873 47.967197,133.679962 
	C47.237236,133.352402 46.550014,133.334427 45.569977,133.246765 
	C44.843678,132.812561 44.410194,132.448029 43.896553,131.856033 
	C43.650345,131.337799 43.412689,131.128174 42.983410,130.861664 
	C42.863392,130.723572 42.866829,130.357697 42.835564,130.093445 
	C42.584545,129.559769 42.364788,129.290344 42.032936,128.729919 
	C41.868454,127.857147 41.816067,127.275368 41.834213,126.157883 
	C41.891277,124.543915 41.877808,123.465645 41.878685,122.030548 
	C43.121544,118.644066 45.093937,117.260612 48.590862,117.824455 
	C50.289570,118.098343 52.169582,117.247810 53.967518,116.906303 
	C54.404991,116.945915 54.842468,116.985535 55.713493,117.239922 
	C56.147041,117.454689 56.514839,117.741653 56.514839,117.741653 
	C56.514839,117.741653 56.981365,117.741264 56.981361,117.741264 
z"/>
<path fill="#F5FBFC" opacity="1.000000" stroke="none" 
	d="
M201.001785,166.978210 
	C196.877319,167.550339 192.893173,168.678864 190.795319,164.254883 
	C187.940765,165.949173 185.475937,167.412170 182.828339,168.983627 
	C181.924591,166.492676 181.178192,164.435455 180.034653,161.283615 
	C179.117462,164.206085 178.572998,165.940933 178.364594,166.604965 
	C172.581772,166.967346 167.636978,166.943619 162.801071,167.657486 
	C155.313034,168.762863 150.427399,168.124908 146.383484,165.626068 
	C139.868240,166.192917 135.251724,166.594559 130.695923,166.990921 
	C128.632492,156.346573 129.398087,155.218903 137.563354,156.580078 
	C137.852692,158.156769 138.160538,159.834351 138.558777,162.004456 
	C140.499054,159.732422 142.035141,157.933670 144.118530,155.494034 
	C145.479065,157.881744 146.536224,159.737045 148.023621,162.347397 
	C148.595779,160.607727 148.892960,159.608566 149.250946,158.631714 
	C151.149323,153.451172 153.427994,152.945206 158.265945,155.508453 
	C159.995255,156.424698 162.982681,156.145432 164.875397,155.277222 
	C167.267426,154.179977 168.745102,153.655701 171.046219,155.607346 
	C172.425873,156.777466 174.961975,156.916428 176.981537,156.927368 
	C180.680054,156.947433 184.123550,156.969009 184.695419,163.476044 
	C187.513641,160.478104 189.315628,158.561203 191.073563,156.691162 
	C192.809464,158.560059 194.567719,160.453003 197.152710,163.236023 
	C197.702377,160.235138 197.984146,158.696854 198.203140,157.501343 
	C199.287704,159.166367 200.754868,160.925232 201.616272,162.942734 
	C202.068542,164.002029 201.459976,165.514252 201.001785,166.978210 
M164.271698,163.382538 
	C164.125443,162.256256 163.979187,161.129990 162.988800,160.000717 
	C160.392349,159.405777 157.795883,158.810852 153.900848,157.918365 
	C153.594345,158.895737 152.934540,160.999695 152.274750,163.103638 
	C154.166962,163.255341 156.060608,163.541611 157.951004,163.521606 
	C159.912766,163.500854 161.871399,163.183609 164.271698,163.382538 
M171.395096,163.076614 
	C172.170868,162.365265 172.946625,161.653931 174.311340,160.402557 
	C171.719833,159.740814 169.825089,159.256989 167.930328,158.773163 
	C167.716278,159.661987 167.037964,161.005081 167.377563,161.352142 
	C168.296921,162.291656 169.648666,162.808090 171.395096,163.076614 
M136.483292,164.584885 
	C136.483292,164.584885 136.417603,164.475220 136.483292,164.584885 
z"/>
<path fill="#053F60" opacity="1.000000" stroke="none" 
	d="
M75.974358,178.599365 
	C68.464973,185.007782 60.747406,184.817505 55.218666,178.229248 
	C53.787827,172.215134 52.671646,166.441376 58.226051,161.279419 
	C61.644543,159.845245 64.572250,158.853989 67.808334,157.812378 
	C68.401123,157.473862 68.685524,157.185684 69.090782,156.638733 
	C69.811653,155.922836 70.411674,155.465714 71.342697,155.010284 
	C72.703918,155.667160 73.734146,156.322342 74.776886,157.324707 
	C74.652840,158.110809 74.516281,158.549744 74.102203,159.101120 
	C74.349403,160.773514 74.874115,162.333466 75.647949,164.176910 
	C76.316460,167.643723 76.735847,170.827026 77.155235,174.010315 
	C76.796776,175.418732 76.438316,176.827148 75.974358,178.599365 
z"/>
<path fill="#103E5C" opacity="1.000000" stroke="none" 
	d="
M186.330048,140.310059 
	C184.964172,139.057846 183.918961,137.867218 182.611954,137.382477 
	C181.443451,136.949112 179.951645,137.489914 178.662292,137.262238 
	C173.212402,136.299896 169.824142,138.093491 168.939972,143.887375 
	C168.442307,147.148636 166.476227,148.258636 163.071747,146.883347 
	C167.020493,136.724136 170.899643,126.582420 174.967712,116.517036 
	C175.394547,115.460907 176.850143,114.398582 177.987564,114.184486 
	C178.905869,114.011642 180.668076,114.856094 181.024216,115.689919 
	C185.411896,125.962440 189.609695,136.316040 194.013580,147.030807 
	C188.365662,147.710327 187.736923,143.883804 186.330048,140.310059 
M178.868134,120.014648 
	C178.675980,119.826935 178.505234,119.603165 178.280762,119.469849 
	C178.194916,119.418861 177.885727,119.538086 177.847839,119.641716 
	C176.070923,124.502998 174.312698,129.371109 172.194321,135.228363 
	C176.680344,134.828583 180.153381,134.519073 183.960114,134.179810 
	C182.068054,129.037582 180.542343,124.891045 178.868134,120.014648 
z"/>
<path fill="#EBF7FA" opacity="1.000000" stroke="none" 
	d="
M71.011688,155.008575 
	C70.411674,155.465714 69.811653,155.922836 68.788818,156.706329 
	C68.077324,157.309372 67.788635,157.586044 67.499954,157.862732 
	C64.572250,158.853989 61.644543,159.845245 58.376919,160.963684 
	C58.023651,160.039749 58.010303,158.988602 57.987785,157.544464 
	C60.739586,155.566437 63.746632,154.289719 66.205910,152.326752 
	C70.256477,149.093628 69.294945,145.012268 67.117706,141.111084 
	C64.883965,137.108627 61.076340,136.152649 56.897282,136.456467 
	C54.433399,136.635590 52.007904,137.308228 49.557274,137.711044 
	C43.105473,138.771561 39.666340,136.110001 37.799294,128.647247 
	C36.159908,122.094460 38.369370,117.485817 44.179188,115.544563 
	C46.842480,114.654671 49.564289,113.939896 52.632915,113.081711 
	C53.242977,114.103264 53.479683,115.188820 53.841949,116.590332 
	C52.169582,117.247810 50.289570,118.098343 48.590862,117.824455 
	C45.093937,117.260612 43.121544,118.644066 41.608212,122.326584 
	C41.470154,124.217506 41.616917,125.455551 41.763680,126.693596 
	C41.816067,127.275368 41.868454,127.857147 42.003220,129.013580 
	C42.346008,129.844727 42.606422,130.101212 42.866829,130.357697 
	C42.866829,130.357697 42.863392,130.723572 42.985817,131.127609 
	C43.397732,131.715591 43.687222,131.899536 43.976711,132.083481 
	C44.410194,132.448029 44.843678,132.812561 45.750160,133.491791 
	C46.818752,133.867493 47.414345,133.928513 48.009933,133.989532 
	C48.484699,134.300873 48.959461,134.612213 50.083694,134.949982 
	C52.537811,134.355118 54.342457,133.733841 56.147102,133.112579 
	C56.147102,133.112579 56.060532,133.076523 56.403671,133.088211 
	C57.339565,132.787476 57.932316,132.475037 58.525070,132.162598 
	C58.525066,132.162598 58.808125,132.251007 59.300152,132.171463 
	C60.844017,132.114853 61.895855,132.137787 62.947693,132.160706 
	C62.947693,132.160706 62.933815,132.071167 63.086037,132.328033 
	C63.821468,132.735138 64.404678,132.885376 64.987885,133.035629 
	C64.987885,133.035629 64.993050,132.994675 65.139374,133.261826 
	C65.825089,133.781616 66.364471,134.034241 66.903854,134.286880 
	C66.920334,134.613419 67.077904,134.843231 67.696640,135.275513 
	C68.315392,135.775223 68.614067,135.975754 68.912743,136.176270 
	C68.912743,136.176270 68.932106,136.067200 68.963669,136.353485 
	C69.286751,136.885178 69.578278,137.130600 69.869797,137.376022 
	C70.305527,138.485107 70.741257,139.594193 71.492020,141.253113 
	C72.163361,142.671341 72.519669,143.539764 72.875977,144.408173 
	C72.875977,144.408173 72.793816,144.732529 72.868263,145.286316 
	C72.299034,148.896255 71.655365,151.952423 71.011688,155.008575 
z"/>
<path fill="#EBF7FA" opacity="1.000000" stroke="none" 
	d="
M77.492401,173.935364 
	C76.735847,170.827026 76.316460,167.643723 75.540497,163.771088 
	C74.915848,161.717377 74.647781,160.353027 74.379715,158.988663 
	C74.516281,158.549744 74.652840,158.110809 74.899948,156.998718 
	C75.451965,155.267868 75.893425,154.210205 76.334885,153.152527 
	C78.927200,151.877548 81.733139,150.901962 84.053741,149.246170 
	C86.539055,147.472855 89.838631,145.388794 90.497879,142.847610 
	C91.493149,139.011185 90.420586,134.705582 85.072174,132.680603 
	C82.947609,131.992264 81.397476,131.325470 79.827034,131.273621 
	C76.952080,131.178726 74.065147,131.447128 71.183205,131.564011 
	C71.183205,131.564011 71.139984,131.709290 70.987930,131.466339 
	C70.222328,131.170135 69.608780,131.116867 68.995239,131.063614 
	C68.286461,130.688583 67.577675,130.313538 66.442673,129.664917 
	C65.683289,129.237778 65.350128,129.084213 65.016968,128.930649 
	C64.541611,128.356461 64.066254,127.782272 63.262543,126.832970 
	C62.655315,126.245972 62.376446,126.034096 62.097576,125.822220 
	C62.097576,125.822220 62.076401,125.931702 62.069290,125.629997 
	C61.730267,124.851700 61.398354,124.375107 61.066437,123.898514 
	C61.066437,123.898514 61.022316,123.966202 61.040897,123.646614 
	C60.728149,122.821739 60.396820,122.316452 60.065491,121.811165 
	C59.719875,121.092056 59.374268,120.372955 58.940952,119.361282 
	C60.252899,118.743736 61.652550,118.418762 63.461452,118.440407 
	C64.223640,120.600266 64.576569,122.413513 64.950958,124.432343 
	C64.972412,124.637939 65.140129,125.015816 65.191818,125.244492 
	C65.426544,125.753838 65.683975,125.917633 66.008820,125.983452 
	C66.001831,126.002342 66.033333,125.976791 66.192451,126.231964 
	C66.908394,126.677734 67.465210,126.868332 68.338074,127.266998 
	C73.626053,127.364235 78.598000,127.253395 83.803467,127.379791 
	C84.662354,127.813057 85.287720,128.009094 85.913078,128.205124 
	C92.033501,132.184937 95.403976,137.356659 94.036980,145.079880 
	C93.194267,149.841049 89.750854,152.571472 86.004829,152.574921 
	C79.859810,152.580597 78.928543,156.093628 79.169701,160.408005 
	C79.356125,163.743118 80.838425,167.005814 81.886337,170.638184 
	C80.628555,171.937225 79.229057,172.898819 77.492401,173.935364 
z"/>
<path fill="#0F405F" opacity="1.000000" stroke="none" 
	d="
M229.150940,115.015869 
	C235.425735,114.686371 241.697983,114.268433 247.977066,114.085785 
	C249.674362,114.036407 251.392410,114.699722 253.100922,115.035904 
	C253.055389,115.539841 253.009857,116.043785 252.964325,116.547722 
	C246.576965,117.079102 240.189590,117.610481 233.521240,118.165237 
	C233.521240,121.403999 233.521240,124.467659 233.521240,128.105118 
	C239.590454,128.105118 245.646652,128.105118 252.243378,128.105118 
	C250.592300,133.557968 246.617599,131.817566 243.636780,132.034210 
	C240.366180,132.271912 237.064957,132.088348 233.506012,132.088348 
	C233.506012,135.919830 233.506012,139.333817 233.506012,143.446503 
	C239.254349,143.446503 244.994553,143.528488 250.730576,143.408844 
	C253.259933,143.356064 254.619598,143.962265 253.131775,146.604736 
	C248.843414,146.292007 245.214645,146.036407 241.584808,146.020477 
	C230.003815,145.969635 230.098740,146.002960 229.967148,134.202377 
	C229.895813,127.804634 229.435684,121.411232 229.150940,115.015869 
z"/>
<path fill="#0C3D5D" opacity="1.000000" stroke="none" 
	d="
M200.980957,147.122314 
	C200.541870,147.190292 200.102798,147.258255 199.342072,146.741409 
	C199.013565,138.335434 199.082489,130.513046 198.956787,122.693802 
	C198.915466,120.123856 198.369949,117.562027 198.054993,114.996483 
	C204.802567,115.106827 211.667221,114.505379 218.254745,115.588890 
	C222.343246,116.261368 223.373627,120.769218 223.043106,124.938530 
	C222.723206,128.973740 220.960449,132.247467 216.901382,132.976349 
	C212.367447,133.790497 207.673920,133.715897 202.262695,134.290222 
	C201.310669,138.742340 201.145813,142.932343 200.980957,147.122314 
M206.545975,118.017906 
	C205.119995,118.103706 203.694016,118.189507 202.316528,118.272385 
	C202.316528,122.337090 202.316528,126.043823 202.316528,129.977921 
	C205.898010,129.977921 209.187927,130.109421 212.462830,129.943710 
	C216.314835,129.748795 218.766525,127.631615 218.617920,123.699020 
	C218.480667,120.066841 216.175919,118.096458 212.440079,118.044609 
	C210.788055,118.021683 209.135742,118.021072 206.545975,118.017906 
z"/>
<path fill="#0A3C5F" opacity="1.000000" stroke="none" 
	d="
M135.965393,147.108673 
	C135.529755,147.180740 135.094147,147.252823 134.337662,146.741272 
	C134.011627,140.012329 134.109085,133.864594 133.965958,127.722466 
	C133.867081,123.479691 133.435699,119.244675 133.152893,115.006187 
	C136.031204,112.538513 137.638092,114.446213 139.166733,116.731590 
	C143.648224,123.431625 148.122131,130.137039 152.666122,136.794540 
	C153.183594,137.552704 154.127045,138.020111 155.276337,137.984497 
	C155.505875,129.900452 155.332031,122.454239 155.158188,115.008026 
	C156.363922,114.772507 157.569656,114.536980 158.550049,114.966995 
	C158.216049,124.323883 158.003372,133.015869 158.055267,141.706253 
	C158.073364,144.739868 157.414642,146.528488 153.982788,146.008011 
	C148.750000,138.372681 143.522858,130.733475 138.264648,123.115685 
	C138.045181,122.797737 137.535812,122.679878 136.742523,123.065933 
	C136.204147,131.478256 136.084763,139.293472 135.965393,147.108673 
z"/>
<path fill="#73A9D9" opacity="1.000000" stroke="none" 
	d="
M83.569946,127.142563 
	C78.598000,127.253395 73.626053,127.364235 68.178436,127.010452 
	C67.146294,126.356155 66.589813,126.166473 66.033333,125.976791 
	C66.033333,125.976791 66.001831,126.002342 65.913727,125.782448 
	C65.655022,125.307709 65.426529,125.125458 65.140129,125.015816 
	C65.140129,125.015816 64.972412,124.637939 64.976974,123.982193 
	C65.309647,120.197815 65.637749,117.069183 65.965851,113.940559 
	C65.965843,113.940559 66.000832,113.994904 66.436172,113.992722 
	C70.282227,113.963356 73.692940,113.936172 77.103645,113.908989 
	C77.103645,113.908989 77.022545,113.972748 77.134277,114.175018 
	C77.546188,114.550529 77.846359,114.723770 78.146538,114.897018 
	C78.146538,114.897018 78.043961,114.949097 78.152649,115.155861 
	C78.560295,115.538834 78.859261,115.715034 79.158226,115.891235 
	C79.158226,115.891235 79.081169,115.960991 79.181473,116.172958 
	C79.595459,116.567932 79.909142,116.750946 80.222824,116.933968 
	C81.841347,119.313362 83.459869,121.692749 85.084412,124.408600 
	C85.314316,125.309044 85.538216,125.873032 85.475746,126.726799 
	C84.649574,127.058571 84.109756,127.100571 83.569946,127.142563 
z"/>
<path fill="#F0FBFD" opacity="1.000000" stroke="none" 
	d="
M285.345245,161.990494 
	C286.316315,162.795883 287.287354,163.601273 288.258423,164.406662 
	C288.085449,164.791687 287.912476,165.176712 287.739502,165.561737 
	C281.040222,165.903748 274.340912,166.245758 266.942352,166.623474 
	C268.119812,161.435913 265.867126,158.107788 261.203766,156.326065 
	C265.085999,152.368393 270.377167,153.506866 278.714844,159.793350 
	C280.206879,158.108704 281.709503,156.412079 283.212158,154.715454 
	C283.661438,154.868835 284.110718,155.022202 284.559998,155.175568 
	C284.704773,156.851349 284.849548,158.527130 284.648193,160.709518 
	C282.922028,161.505081 281.541992,161.794022 280.161926,162.082977 
	C280.200287,162.387421 280.238647,162.691879 280.276978,162.996323 
	C281.966400,162.661041 283.655823,162.325775 285.345245,161.990494 
M274.502716,160.203186 
	C273.403259,159.161453 272.303802,158.119736 271.204346,157.078003 
	C270.700165,157.316956 270.195984,157.555908 269.691803,157.794861 
	C270.279907,159.817307 270.868011,161.839737 271.456116,163.862167 
	C272.572021,162.871918 273.687927,161.881668 274.502716,160.203186 
z"/>
<path fill="#EBFAFD" opacity="1.000000" stroke="none" 
	d="
M217.119873,166.959015 
	C215.854691,165.172958 214.990891,163.414398 214.033081,161.464462 
	C212.616394,161.995621 211.002609,162.600693 209.560593,163.141373 
	C209.167160,160.164001 208.816559,157.510773 208.501831,155.129135 
	C215.351028,155.129135 222.384857,155.129135 228.969101,155.129135 
	C227.120239,158.181198 225.476532,160.894592 223.832825,163.607986 
	C224.150650,163.887207 224.468475,164.166428 224.786301,164.445648 
	C222.364624,165.292603 219.942932,166.139542 217.119873,166.959015 
z"/>
<path fill="#082E49" opacity="1.000000" stroke="none" 
	d="
M264.062469,143.854843 
	C269.206696,143.854843 274.350922,143.854843 279.495148,143.854843 
	C279.767334,144.288361 280.039520,144.721863 280.311707,145.155380 
	C279.229248,145.878296 278.169586,147.182281 277.060394,147.225876 
	C271.573242,147.441574 266.072968,147.324112 260.226440,147.324112 
	C260.226440,136.352264 260.226440,125.467644 260.226440,114.465340 
	C263.277100,113.260193 264.153809,114.454262 264.096924,117.556343 
	C263.947266,125.715118 264.030823,133.878159 263.673096,142.191895 
	C263.121613,133.784409 262.918549,125.224510 262.715485,116.664612 
	C262.160248,116.672592 261.605011,116.680573 261.049774,116.688553 
	C261.049774,125.713058 260.986115,134.738831 261.165131,143.759781 
	C261.180176,144.518906 262.796295,145.844910 263.715271,145.886917 
	C268.455658,146.103683 273.211243,145.987534 277.961548,145.987534 
	C277.953583,145.857803 277.945618,145.728073 277.937653,145.598343 
	C273.312592,145.017181 268.687531,144.436005 264.062469,143.854843 
z"/>
<path fill="#0A3C5F" opacity="1.000000" stroke="none" 
	d="
M264.050537,143.623779 
	C268.687531,144.436005 273.312592,145.017181 277.937653,145.598343 
	C277.945618,145.728073 277.953583,145.857803 277.961548,145.987534 
	C273.211243,145.987534 268.455658,146.103683 263.715271,145.886917 
	C262.796295,145.844910 261.180176,144.518906 261.165131,143.759781 
	C260.986115,134.738831 261.049774,125.713058 261.049774,116.688553 
	C261.605011,116.680573 262.160248,116.672592 262.715485,116.664612 
	C262.918549,125.224510 263.121613,133.784409 263.597961,142.652802 
	C263.871277,142.961288 264.038635,143.392700 264.050537,143.623779 
z"/>
<path fill="#042C48" opacity="1.000000" stroke="none" 
	d="
M229.074921,115.478653 
	C229.435684,121.411232 229.895813,127.804634 229.967148,134.202377 
	C230.098740,146.002960 230.003815,145.969635 241.584808,146.020477 
	C245.214645,146.036407 248.843414,146.292007 252.761444,146.748672 
	C245.237610,147.059433 237.425003,147.059433 228.998886,147.059433 
	C228.998886,136.795746 228.998886,126.368584 229.074921,115.478653 
z"/>
<path fill="#042C48" opacity="1.000000" stroke="none" 
	d="
M154.146515,146.417542 
	C157.414642,146.528488 158.073364,144.739868 158.055267,141.706253 
	C158.003372,133.015869 158.216049,124.323883 158.601730,115.323860 
	C158.878754,125.551529 158.878754,136.087875 158.878754,147.250061 
	C157.322189,147.105942 155.816208,146.966522 154.146515,146.417542 
z"/>
<path fill="#082E49" opacity="1.000000" stroke="none" 
	d="
M197.959381,115.457474 
	C198.369949,117.562027 198.915466,120.123856 198.956787,122.693802 
	C199.082489,130.513046 199.013565,138.335434 199.022919,146.632629 
	C198.632812,145.682846 197.916214,144.260635 197.900421,142.830673 
	C197.801331,133.860886 197.858383,124.889389 197.959381,115.457474 
z"/>
<path fill="#042C48" opacity="1.000000" stroke="none" 
	d="
M133.070709,115.468948 
	C133.435699,119.244675 133.867081,123.479691 133.965958,127.722466 
	C134.109085,133.864594 134.011627,140.012329 134.019806,146.633789 
	C133.672745,145.654190 133.034271,144.201370 133.019760,142.742325 
	C132.930817,133.806244 132.983200,124.868736 133.070709,115.468948 
z"/>
<path fill="#042C48" opacity="1.000000" stroke="none" 
	d="
M136.388947,146.952423 
	C136.084763,139.293472 136.204147,131.478256 136.595856,123.355240 
	C136.849609,130.963684 136.831055,138.879929 136.388947,146.952423 
z"/>
<path fill="#042C48" opacity="1.000000" stroke="none" 
	d="
M155.078354,115.470947 
	C155.332031,122.454239 155.505875,129.900452 155.406906,137.656097 
	C155.088898,130.621628 155.043716,123.277748 155.078354,115.470947 
z"/>
<path fill="#7DA4C6" opacity="1.000000" stroke="none" 
	d="
M76.878204,113.599579 
	C73.692940,113.936172 70.282227,113.963356 66.407166,113.978516 
	C69.321007,110.704063 72.996201,112.144501 76.878204,113.599579 
z"/>
<path fill="#082E49" opacity="1.000000" stroke="none" 
	d="
M201.401733,146.968948 
	C201.145813,142.932343 201.310669,138.742340 201.807007,134.302124 
	C202.033157,138.306458 201.927826,142.561005 201.401733,146.968948 
z"/>
<path fill="#7DA4C6" opacity="1.000000" stroke="none" 
	d="
M65.708084,114.057770 
	C65.637749,117.069183 65.309647,120.197815 64.955521,123.776596 
	C64.576569,122.413513 64.223640,120.600266 63.817394,118.378258 
	C63.834442,117.534859 63.904800,117.100220 64.175186,116.226837 
	C64.622383,115.593414 64.732903,115.339310 64.706757,115.025795 
	C64.954613,114.742188 65.202469,114.458580 65.708084,114.057770 
z"/>
<path fill="#7DA4C6" opacity="1.000000" stroke="none" 
	d="
M240.960236,163.039520 
	C242.345001,163.821732 243.729767,164.603958 245.114517,165.386185 
	C244.982483,165.671646 244.850433,165.957108 244.718384,166.242554 
	C243.476959,165.385284 242.235535,164.528015 240.996582,163.335983 
	C240.999069,163.001205 240.960236,163.039520 240.960236,163.039520 
z"/>
<path fill="#7DA4C6" opacity="1.000000" stroke="none" 
	d="
M241.018646,162.982208 
	C239.326080,162.963226 237.613922,162.963226 235.901764,162.963226 
	C237.636887,162.815399 239.353302,159.689514 240.987823,162.714157 
	C240.960236,163.039520 240.999069,163.001205 241.018646,162.982208 
z"/>
<path fill="#EBF7FA" opacity="1.000000" stroke="none" 
	d="
M46.452393,148.364380 
	C47.105221,149.465775 47.557533,150.846054 48.056999,152.590546 
	C47.486725,151.517593 46.869301,150.080429 46.452393,148.364380 
z"/>
<path fill="#7DA4C6" opacity="1.000000" stroke="none" 
	d="
M285.231079,161.762421 
	C283.655823,162.325775 281.966400,162.661041 280.276978,162.996323 
	C280.238647,162.691879 280.200287,162.387421 280.161926,162.082977 
	C281.541992,161.794022 282.922028,161.505081 284.641113,161.129517 
	C285.025726,161.206741 285.071320,161.370544 285.231079,161.762421 
z"/>
<path fill="#EBF7FA" opacity="1.000000" stroke="none" 
	d="
M52.044971,156.378021 
	C52.828445,156.253876 53.661697,156.444107 54.735802,156.853546 
	C54.016022,156.945984 53.055386,156.819199 52.044971,156.378021 
z"/>
<path fill="#7DA4C6" opacity="1.000000" stroke="none" 
	d="
M94.568909,125.991013 
	C93.155426,126.187187 91.314194,126.360779 89.236168,126.249336 
	C90.713303,125.965675 92.427238,125.967049 94.568909,125.991013 
z"/>
<path fill="#F0FBFD" opacity="1.000000" stroke="none" 
	d="
M290.391632,165.718414 
	C290.561218,165.852219 290.586395,166.084122 290.611542,166.316010 
	C290.490112,166.149506 290.368652,165.983002 290.391632,165.718414 
z"/>
<path fill="#7DA4C6" opacity="1.000000" stroke="none" 
	d="
M96.959000,125.721756 
	C96.636253,125.964012 96.174767,125.978668 95.367447,125.999100 
	C95.621170,125.834625 96.220711,125.664383 96.959000,125.721756 
z"/>
<path fill="#7DA4C6" opacity="1.000000" stroke="none" 
	d="
M80.111115,116.678230 
	C79.909142,116.750946 79.595459,116.567932 79.187096,116.121292 
	C79.394745,116.045937 79.697083,116.234215 80.111115,116.678230 
z"/>
<path fill="#7DA4C6" opacity="1.000000" stroke="none" 
	d="
M78.077011,114.632568 
	C77.846359,114.723770 77.546188,114.550529 77.151871,114.126534 
	C77.374313,114.039886 77.690895,114.204002 78.077011,114.632568 
z"/>
<path fill="#EBF7FA" opacity="1.000000" stroke="none" 
	d="
M64.536827,115.145897 
	C64.732903,115.339310 64.622383,115.593414 64.187950,115.896133 
	C64.041245,115.717636 64.163315,115.471581 64.536827,115.145897 
z"/>
<path fill="#EBF7FA" opacity="1.000000" stroke="none" 
	d="
M82.121620,171.201370 
	C82.296257,171.150146 82.574974,171.330582 82.957993,171.743469 
	C82.783432,171.794968 82.504562,171.613998 82.121620,171.201370 
z"/>
<path fill="#7DA4C6" opacity="1.000000" stroke="none" 
	d="
M79.093079,115.623550 
	C78.859261,115.715034 78.560295,115.538834 78.180931,115.105774 
	C78.409668,115.017899 78.718803,115.186874 79.093079,115.623550 
z"/>
<path fill="#EBF7FA" opacity="1.000000" stroke="none" 
	d="
M56.861084,117.555023 
	C56.981365,117.741264 56.514839,117.741653 56.514839,117.741653 
	C56.514839,117.741653 56.147041,117.454689 56.043159,117.246162 
	C56.252525,117.036507 56.519703,117.146889 56.861084,117.555023 
z"/>
<path fill="#EBF7FA" opacity="1.000000" stroke="none" 
	d="
M49.132866,154.160095 
	C49.315407,154.105591 49.601219,154.296066 50.003338,154.720947 
	C49.825142,154.771927 49.530636,154.588516 49.132866,154.160095 
z"/>
<path fill="#7DA4C6" opacity="1.000000" stroke="none" 
	d="
M83.803467,127.379799 
	C84.109756,127.100571 84.649574,127.058571 85.593170,127.008743 
	C85.987999,127.201752 85.979042,127.402588 85.941582,127.904274 
	C85.287720,128.009094 84.662354,127.813057 83.803467,127.379799 
z"/>
<path fill="#113C58" opacity="1.000000" stroke="none" 
	d="
M75.975845,152.977356 
	C75.893425,154.210205 75.451965,155.267868 74.887436,156.651520 
	C73.734146,156.322342 72.703918,155.667160 71.342697,155.010284 
	C71.655365,151.952423 72.299034,148.896255 72.975311,145.414886 
	C73.877548,147.593842 74.747177,150.198013 75.975845,152.977356 
z"/>
<path fill="#113C58" opacity="1.000000" stroke="none" 
	d="
M71.351707,131.956406 
	C74.065147,131.447128 76.952080,131.178726 79.827034,131.273621 
	C81.397476,131.325470 82.947609,131.992264 84.697052,132.707611 
	C80.431534,132.805252 75.975868,132.577026 71.351707,131.956406 
z"/>
<path fill="#113C58" opacity="1.000000" stroke="none" 
	d="
M55.733597,133.076294 
	C54.342457,133.733841 52.537811,134.355118 50.366394,134.907120 
	C51.773117,134.238571 53.546604,133.639282 55.733597,133.076294 
z"/>
<path fill="#113C58" opacity="1.000000" stroke="none" 
	d="
M47.967194,133.679947 
	C47.414345,133.928513 46.818752,133.867493 46.042976,133.561462 
	C46.550014,133.334427 47.237236,133.352402 47.967194,133.679947 
z"/>
<path fill="#113C58" opacity="1.000000" stroke="none" 
	d="
M62.773872,131.866821 
	C61.895855,132.137787 60.844017,132.114853 59.399048,132.060974 
	C60.203957,131.877670 61.402000,131.725296 62.773872,131.866821 
z"/>
<path fill="#063F61" opacity="1.000000" stroke="none" 
	d="
M41.834213,126.157883 
	C41.616917,125.455551 41.470154,124.217506 41.593864,122.683426 
	C41.877808,123.465645 41.891277,124.543915 41.834213,126.157883 
z"/>
<path fill="#113C58" opacity="1.000000" stroke="none" 
	d="
M72.908890,144.012039 
	C72.519669,143.539764 72.163361,142.671341 71.722748,141.450867 
	C72.072884,141.937820 72.507339,142.776871 72.908890,144.012039 
z"/>
<path fill="#113C58" opacity="1.000000" stroke="none" 
	d="
M66.791290,133.988281 
	C66.364471,134.034241 65.825089,133.781616 65.124084,133.275848 
	C65.534546,133.245041 66.106628,133.467361 66.791290,133.988281 
z"/>
<path fill="#113C58" opacity="1.000000" stroke="none" 
	d="
M64.813156,132.774475 
	C64.404678,132.885376 63.821468,132.735138 63.045788,132.348816 
	C63.448353,132.246277 64.043388,132.379807 64.813156,132.774475 
z"/>
<path fill="#113C58" opacity="1.000000" stroke="none" 
	d="
M58.159264,132.136230 
	C57.932316,132.475037 57.339565,132.787476 56.400391,133.134979 
	C56.633793,132.816666 57.213623,132.463257 58.159264,132.136230 
z"/>
<path fill="#113C58" opacity="1.000000" stroke="none" 
	d="
M60.065758,122.136230 
	C60.396820,122.316452 60.728149,122.821739 61.081295,123.646286 
	C60.757416,123.464127 60.411716,122.962708 60.065758,122.136230 
z"/>
<path fill="#113C58" opacity="1.000000" stroke="none" 
	d="
M69.205429,131.310059 
	C69.608780,131.116867 70.222328,131.170135 71.058929,131.439850 
	C70.659874,131.623047 70.037750,131.589783 69.205429,131.310059 
z"/>
<path fill="#113C58" opacity="1.000000" stroke="none" 
	d="
M61.069016,124.218224 
	C61.398354,124.375107 61.730267,124.851700 62.124779,125.624588 
	C61.815453,125.459892 61.443527,124.998909 61.069016,124.218224 
z"/>
<path fill="#113C58" opacity="1.000000" stroke="none" 
	d="
M65.150284,129.174606 
	C65.350128,129.084213 65.683289,129.237778 66.138474,129.644165 
	C65.934868,129.737518 65.609238,129.578049 65.150284,129.174606 
z"/>
<path fill="#113C58" opacity="1.000000" stroke="none" 
	d="
M42.835567,130.093445 
	C42.606422,130.101212 42.346008,129.844727 42.115314,129.304596 
	C42.364788,129.290344 42.584545,129.559769 42.835567,130.093445 
z"/>
<path fill="#113C58" opacity="1.000000" stroke="none" 
	d="
M43.896553,131.856033 
	C43.687222,131.899536 43.397732,131.715591 43.105835,131.265686 
	C43.412689,131.128174 43.650345,131.337799 43.896553,131.856033 
z"/>
<path fill="#113C58" opacity="1.000000" stroke="none" 
	d="
M62.171158,126.079941 
	C62.376446,126.034096 62.655315,126.245972 63.002769,126.719711 
	C62.795818,126.766930 62.520279,126.552292 62.171158,126.079941 
z"/>
<path fill="#113C58" opacity="1.000000" stroke="none" 
	d="
M68.819267,135.912628 
	C68.614067,135.975754 68.315392,135.775223 67.910797,135.319336 
	C68.111855,135.258987 68.418823,135.453995 68.819267,135.912628 
z"/>
<path fill="#113C58" opacity="1.000000" stroke="none" 
	d="
M69.803780,137.084518 
	C69.578278,137.130600 69.286751,136.885178 68.908524,136.358688 
	C69.127136,136.316086 69.432449,136.554550 69.803780,137.084518 
z"/>
<path fill="#FEFFFF" opacity="1.000000" stroke="none" 
	d="
M163.831390,162.996017 
	C161.871399,163.183609 159.912766,163.500854 157.951004,163.521606 
	C156.060608,163.541611 154.166962,163.255341 152.274750,163.103638 
	C152.934540,160.999695 153.594345,158.895737 153.900848,157.918365 
	C157.795883,158.810852 160.392349,159.405777 163.444382,160.375641 
	C163.877106,161.499039 163.854248,162.247528 163.831390,162.996017 
z"/>
<path fill="#FEFFFF" opacity="1.000000" stroke="none" 
	d="
M171.112000,163.284470 
	C169.648666,162.808090 168.296921,162.291656 167.377563,161.352142 
	C167.037964,161.005081 167.716278,159.661987 167.930328,158.773163 
	C169.825089,159.256989 171.719833,159.740814 174.311340,160.402557 
	C172.946625,161.653931 172.170868,162.365265 171.112000,163.284470 
z"/>
<path fill="#7DA4C6" opacity="1.000000" stroke="none" 
	d="
M164.051544,163.189270 
	C163.854248,162.247528 163.877106,161.499039 163.866455,160.377136 
	C163.979187,161.129990 164.125443,162.256256 164.051544,163.189270 
z"/>
<path fill="#FEFFFF" opacity="1.000000" stroke="none" 
	d="
M136.450439,164.530060 
	C136.417603,164.475220 136.483292,164.584885 136.450439,164.530060 
z"/>
<path fill="#113C58" opacity="1.000000" stroke="none" 
	d="
M74.102203,159.101120 
	C74.647781,160.353027 74.915848,161.717377 75.291367,163.487579 
	C74.874115,162.333466 74.349403,160.773514 74.102203,159.101120 
z"/>
<path fill="#113C58" opacity="1.000000" stroke="none" 
	d="
M67.808334,157.812378 
	C67.788635,157.586044 68.077324,157.309372 68.667969,156.965088 
	C68.685524,157.185684 68.401123,157.473862 67.808334,157.812378 
z"/>
<path fill="#E9F4F8" opacity="1.000000" stroke="none" 
	d="
M178.942383,120.379578 
	C180.542343,124.891045 182.068054,129.037582 183.960114,134.179810 
	C180.153381,134.519073 176.680344,134.828583 172.194321,135.228363 
	C174.312698,129.371109 176.070923,124.502998 177.847839,119.641716 
	C177.885727,119.538086 178.194916,119.418861 178.280762,119.469849 
	C178.505234,119.603165 178.675980,119.826935 178.942383,120.379578 
z"/>
<path fill="#7DA4C6" opacity="1.000000" stroke="none" 
	d="
M66.192451,126.231964 
	C66.589813,126.166473 67.146294,126.356155 67.862404,126.802383 
	C67.465210,126.868332 66.908394,126.677734 66.192451,126.231964 
z"/>
<path fill="#7DA4C6" opacity="1.000000" stroke="none" 
	d="
M65.191818,125.244492 
	C65.426529,125.125458 65.655022,125.307709 65.920708,125.763557 
	C65.683975,125.917633 65.426544,125.753838 65.191818,125.244492 
z"/>
<path fill="#F5FBFC" opacity="1.000000" stroke="none" 
	d="
M207.014771,118.014114 
	C209.135742,118.021072 210.788055,118.021683 212.440079,118.044609 
	C216.175919,118.096458 218.480667,120.066841 218.617920,123.699020 
	C218.766525,127.631615 216.314835,129.748795 212.462830,129.943710 
	C209.187927,130.109421 205.898010,129.977921 202.316528,129.977921 
	C202.316528,126.043823 202.316528,122.337090 202.316528,118.272385 
	C203.694016,118.189507 205.119995,118.103706 207.014771,118.014114 
z"/>
<path fill="#FEFFFF" opacity="1.000000" stroke="none" 
	d="
M274.653290,160.547302 
	C273.687927,161.881668 272.572021,162.871918 271.456116,163.862183 
	C270.868011,161.839737 270.279907,159.817307 269.691803,157.794861 
	C270.195984,157.555908 270.700165,157.316956 271.204346,157.078003 
	C272.303802,158.119736 273.403259,159.161453 274.653290,160.547302 
z"/>
</svg>